<svg width="185" height="30" viewBox="0 0 185 30" fill="none" xmlns="http://www.w3.org/2000/svg">
<g clip-path="url(#clip0_7585_137498)">
<path d="M49.8848 7.87755C49.8848 7.66348 50.0589 7.47083 50.2765 7.47083H55.1518C59.3524 7.47083 62.784 10.8316 62.784 14.9345C62.784 19.0374 59.3452 22.441 55.1518 22.441H50.2765C50.0589 22.441 49.8848 22.2483 49.8848 22.0343V7.87755ZM54.8036 20.9711C58.3657 20.9711 60.9557 18.4665 60.9557 14.9416C60.9557 11.4167 58.3657 8.93359 54.8036 8.93359H51.5389V20.9782H54.8036V20.9711Z" fill="white"/>
<path d="M66.3828 7.87755C66.3828 7.66348 66.5569 7.47083 66.7963 7.47083H75.3644C75.6038 7.47083 75.7779 7.66348 75.7779 7.87755V8.49833C75.7779 8.71239 75.6038 8.90505 75.3644 8.90505H68.0587V14.1211H74.2979C74.5156 14.1211 74.7114 14.3137 74.7114 14.5278V15.1486C74.7114 15.384 74.5156 15.5553 74.2979 15.5553H68.0587V21.0068H75.3644C75.6038 21.0068 75.7779 21.1994 75.7779 21.4135V22.0343C75.7779 22.2483 75.6038 22.441 75.3644 22.441H66.7963C66.5569 22.441 66.3828 22.2483 66.3828 22.0343V7.87755Z" fill="white"/>
<path d="M77.9909 8.02739C77.8603 7.74911 78.0344 7.47083 78.3609 7.47083H79.2315C79.4273 7.47083 79.5579 7.59926 79.6015 7.70629L85.0136 19.6867H85.1007L90.5128 7.70629C90.5564 7.59926 90.7087 7.47083 90.8828 7.47083H91.7534C92.0799 7.47083 92.254 7.74911 92.1234 8.02739L85.5142 22.4196C85.4489 22.548 85.3183 22.655 85.1442 22.655H84.9266C84.7742 22.655 84.6219 22.548 84.5566 22.4196L77.9909 8.02739V8.02739Z" fill="white"/>
<path d="M94.8203 7.87755C94.8203 7.66348 94.9944 7.47083 95.2338 7.47083H103.802C104.041 7.47083 104.215 7.66348 104.215 7.87755V8.49833C104.215 8.71239 104.041 8.90505 103.802 8.90505H96.4962V14.1211H102.735C102.953 14.1211 103.149 14.3137 103.149 14.5278V15.1486C103.149 15.384 102.953 15.5553 102.735 15.5553H96.4962V21.0068H103.802C104.041 21.0068 104.215 21.1994 104.215 21.4135V22.0343C104.215 22.2483 104.041 22.441 103.802 22.441H95.2338C94.9944 22.441 94.8203 22.2483 94.8203 22.0343V7.87755Z" fill="white"/>
<path d="M107.488 7.87755C107.488 7.66348 107.662 7.47083 107.902 7.47083H108.751C108.968 7.47083 109.164 7.66348 109.164 7.87755V21.0139H115.425C115.665 21.0139 115.839 21.2065 115.839 21.4206V22.0414C115.839 22.2555 115.665 22.4481 115.425 22.4481H107.902C107.662 22.4481 107.488 22.2555 107.488 22.0414V7.87755V7.87755Z" fill="white"/>
<path d="M124.4 7.25671C128.746 7.25671 132.228 10.7031 132.228 14.9773C132.228 19.2514 128.746 22.655 124.4 22.655C120.054 22.655 116.594 19.2514 116.594 14.9773C116.594 10.7031 120.054 7.25671 124.4 7.25671ZM124.4 21.1637C127.861 21.1637 130.705 18.3809 130.705 14.9844C130.705 11.5879 127.853 8.76229 124.4 8.76229C120.947 8.76229 118.117 11.5879 118.117 14.9844C118.117 18.3809 120.947 21.1637 124.4 21.1637Z" fill="white"/>
<path d="M135.826 7.87755C135.826 7.66348 136 7.47083 136.239 7.47083H141.042C143.719 7.47083 145.917 9.61146 145.917 12.1945C145.917 14.7775 143.719 17.0038 141.064 17.0038H137.472V22.0343C137.472 22.2483 137.277 22.441 137.059 22.441H136.232C135.992 22.441 135.818 22.2483 135.818 22.0343V7.87755H135.826ZM140.94 15.4268C142.725 15.4268 144.249 13.9926 144.249 12.1517C144.249 10.4178 142.725 9.09057 140.94 9.09057H137.48V15.4197H140.94V15.4268Z" fill="white"/>
<path d="M148.906 7.87755C148.906 7.66348 149.08 7.47083 149.32 7.47083H157.888C158.127 7.47083 158.301 7.66348 158.301 7.87755V8.49833C158.301 8.71239 158.127 8.90505 157.888 8.90505H150.582V14.1211H156.821C157.039 14.1211 157.235 14.3137 157.235 14.5278V15.1486C157.235 15.384 157.039 15.5553 156.821 15.5553H150.582V21.0068H157.888C158.127 21.0068 158.301 21.1994 158.301 21.4135V22.0343C158.301 22.2483 158.127 22.441 157.888 22.441H149.32C149.08 22.441 148.906 22.2483 148.906 22.0343V7.87755Z" fill="white"/>
<path d="M161.575 7.87755C161.575 7.66348 161.749 7.47083 161.989 7.47083H167.618C170.23 7.47083 172.356 9.48302 172.356 12.0232C172.356 13.9926 171.028 15.6409 169.135 16.3901L172.116 21.8202C172.269 22.0985 172.116 22.441 171.746 22.441H170.636C170.441 22.441 170.332 22.3339 170.288 22.2483L167.393 16.5828H163.236V22.0343C163.236 22.2483 163.041 22.441 162.823 22.441H161.974C161.735 22.441 161.561 22.2483 161.561 22.0343V7.87755H161.575ZM167.517 15.17C169.193 15.17 170.651 13.8 170.651 12.0446C170.651 10.4178 169.193 9.02635 167.517 9.02635H163.294V15.1628H167.517V15.17Z" fill="white"/>
<path d="M175.22 20.2005C175.329 20.072 175.438 19.9222 175.546 19.7937C175.764 19.5155 176.004 19.3442 176.308 19.6011C176.461 19.7295 178.049 21.228 179.986 21.228C181.749 21.228 182.903 20.1362 182.903 18.8733C182.903 17.3962 181.597 16.5186 179.094 15.4911C176.7 14.4636 175.263 13.5003 175.263 11.06C175.263 9.60433 176.439 7.24963 179.892 7.24963C182.025 7.24963 183.614 8.34136 183.614 8.34136C183.744 8.40558 184.006 8.66245 183.744 9.06917C183.657 9.19761 183.57 9.34745 183.483 9.47589C183.287 9.77558 183.07 9.8612 182.722 9.66855C182.569 9.58292 181.198 8.68386 179.87 8.68386C177.563 8.68386 176.867 10.1395 176.867 11.0386C176.867 12.4728 177.977 13.3076 179.805 14.0568C182.743 15.2342 184.637 16.3259 184.637 18.8019C184.637 21.0282 182.482 22.6551 179.936 22.6551C177.389 22.6551 175.626 21.178 175.343 20.9211C175.169 20.7713 174.952 20.6 175.213 20.1933L175.22 20.2005Z" fill="white"/>
<path d="M38.2341 29.6121C37.8496 29.6121 37.5449 29.3053 37.5449 28.9342V1.03468C37.5449 0.6565 37.8569 0.356812 38.2341 0.356812C38.6114 0.356812 38.9234 0.663635 38.9234 1.03468V28.9342C38.9234 29.3124 38.6114 29.6121 38.2341 29.6121Z" fill="white"/>
<mask id="mask0_7585_137498" style="mask-type:luminance" maskUnits="userSpaceOnUse" x="4" y="6" width="25" height="23">
<path d="M25.1236 6.92125L23.7234 8.29839C23.513 8.50532 23.484 8.83355 23.6436 9.07615C24.1587 9.84678 24.5649 10.6745 24.8624 11.5379C25.2396 12.6367 25.4355 13.807 25.4355 14.9843C25.4355 20.9353 20.5167 25.7802 14.4661 25.7802C12.6451 25.7802 10.8967 25.3521 9.32239 24.5244L11.6875 22.1982C12.5726 22.5265 13.5157 22.6977 14.4661 22.6977C18.79 22.6977 22.3014 19.237 22.3014 14.9914C22.3014 14.7274 22.2869 14.4563 22.2579 14.1923C22.1636 13.3003 21.9096 12.4298 21.5179 11.6306C21.3292 11.2453 20.8142 11.1597 20.5094 11.4594L19.0947 12.8508C18.9424 13.0006 18.8771 13.2218 18.9279 13.4288L19.044 13.9283C19.1238 14.2779 19.1673 14.6347 19.1673 14.9843C19.1673 17.5317 17.0561 19.6081 14.4661 19.6081C13.6463 19.6081 12.8483 19.394 12.1373 19.0016L11.5134 18.6519C11.2667 18.5163 10.962 18.552 10.7589 18.7518L4.9767 24.4388C4.70827 24.7028 4.73729 25.138 5.042 25.3664L5.89082 26.0086C8.372 27.878 11.3393 28.8699 14.4661 28.8699C22.2434 28.8699 28.5769 22.6478 28.5769 14.9914C28.5769 12.5725 27.9385 10.1964 26.7196 8.11287L26.1102 7.06396C25.9942 6.86417 25.7765 6.75 25.5661 6.75C25.4065 6.75 25.2469 6.80708 25.1236 6.92839" fill="white"/>
</mask>
<g mask="url(#mask0_7585_137498)">
<path d="M16.6519 -4.99292L-6.52539 17.8027L16.6519 40.5984L39.8292 17.8027L16.6519 -4.99292Z" fill="url(#paint0_linear_7585_137498)"/>
</g>
<mask id="mask1_7585_137498" style="mask-type:luminance" maskUnits="userSpaceOnUse" x="0" y="1" width="25" height="23">
<path d="M14.4721 1.10589C6.69486 1.10589 0.361328 7.32799 0.361328 14.9843C0.361328 17.4032 0.99976 19.7793 2.21858 21.8629L2.82799 22.9118C3.03113 23.2614 3.52447 23.3257 3.81466 23.0402L5.21486 21.6631C5.42525 21.4562 5.45427 21.1279 5.29466 20.8853C4.78682 20.1147 4.37329 19.287 4.07584 18.4236C3.69858 17.3247 3.5027 16.1545 3.5027 14.9772C3.5027 9.02623 8.42152 4.1884 14.4794 4.1884C16.3003 4.1884 18.0488 4.61653 19.6231 5.44424L17.258 7.77039C16.3729 7.44216 15.4298 7.27091 14.4794 7.27091C10.1554 7.27091 6.64407 10.7316 6.64407 14.9772C6.64407 15.1056 6.68035 15.6907 6.6876 15.7906C6.78192 16.6754 7.03584 17.5388 7.4276 18.338C7.61623 18.7233 8.13133 18.8089 8.43603 18.5092L9.85074 17.1178C10.0031 16.968 10.0684 16.7468 10.0176 16.5398L9.90152 16.0404C9.82172 15.6907 9.77819 15.334 9.77819 14.9843C9.77819 12.437 11.8894 10.3606 14.4794 10.3606C15.2919 10.3606 16.0972 10.5675 16.8082 10.9671L17.4321 11.3167C17.6788 11.4523 17.9835 11.4166 18.1866 11.2168L23.9688 5.52986C24.2372 5.26585 24.2082 4.83059 23.9035 4.60226L23.0547 3.96007C20.5735 2.09058 17.6062 1.09875 14.4794 1.09875L14.4721 1.10589Z" fill="white"/>
</mask>
<g mask="url(#mask1_7585_137498)">
<path d="M24.2227 1.10583H0.361328V23.3327H24.2227V1.10583Z" fill="url(#paint1_linear_7585_137498)"/>
</g>
</g>
<defs>
<linearGradient id="paint0_linear_7585_137498" x1="8.03096" y1="27.4444" x2="28.0094" y2="7.13153" gradientUnits="userSpaceOnUse">
<stop stop-color="#AF8FF4"/>
<stop offset="1" stop-color="#5FBEFF"/>
</linearGradient>
<linearGradient id="paint1_linear_7585_137498" x1="1.57507" y1="13.0132" x2="24.1623" y2="13.0132" gradientUnits="userSpaceOnUse">
<stop stop-color="#68D6F9"/>
<stop offset="1" stop-color="#7EF0B2"/>
</linearGradient>
<clipPath id="clip0_7585_137498">
<rect width="185" height="29.9689" fill="white"/>
</clipPath>
</defs>
</svg>
